<svg xmlns="http://www.w3.org/2000/svg" xmlns:xlink="http://www.w3.org/1999/xlink" width="453" zoomAndPan="magnify" viewBox="0 0 340.5 340.499998" height="453" preserveAspectRatio="xMidYMid meet" version="1.0"><defs><clipPath id="9155c3d2e9"><path d="M 7.683594 7.683594 L 331.976562 7.683594 L 331.976562 331.976562 L 7.683594 331.976562 Z M 7.683594 7.683594 " clip-rule="nonzero"/></clipPath><clipPath id="603e565a12"><path d="M 169.828125 7.683594 C 80.277344 7.683594 7.683594 80.277344 7.683594 169.828125 C 7.683594 259.378906 80.277344 331.976562 169.828125 331.976562 C 259.378906 331.976562 331.976562 259.378906 331.976562 169.828125 C 331.976562 80.277344 259.378906 7.683594 169.828125 7.683594 Z M 169.828125 7.683594 " clip-rule="nonzero"/></clipPath><clipPath id="a92c372cbf"><path d="M 33.964844 33.964844 L 305.691406 33.964844 L 305.691406 305.691406 L 33.964844 305.691406 Z M 33.964844 33.964844 " clip-rule="nonzero"/></clipPath><clipPath id="a02725a43a"><path d="M 169.828125 33.964844 C 94.792969 33.964844 33.964844 94.792969 33.964844 169.828125 C 33.964844 244.863281 94.792969 305.691406 169.828125 305.691406 C 244.863281 305.691406 305.691406 244.863281 305.691406 169.828125 C 305.691406 94.792969 244.863281 33.964844 169.828125 33.964844 Z M 169.828125 33.964844 " clip-rule="nonzero"/></clipPath></defs><g clip-path="url(#9155c3d2e9)"><g clip-path="url(#603e565a12)"><path fill="#23bfd7" d="M 7.683594 7.683594 L 331.976562 7.683594 L 331.976562 331.976562 L 7.683594 331.976562 Z M 7.683594 7.683594 " fill-opacity="1" fill-rule="nonzero"/></g></g><g clip-path="url(#a92c372cbf)"><g clip-path="url(#a02725a43a)"><path fill="#80dde9" d="M 33.964844 33.964844 L 305.691406 33.964844 L 305.691406 305.691406 L 33.964844 305.691406 Z M 33.964844 33.964844 " fill-opacity="1" fill-rule="nonzero"/></g></g></svg>