<svg xmlns="http://www.w3.org/2000/svg" xmlns:xlink="http://www.w3.org/1999/xlink" width="500" zoomAndPan="magnify" viewBox="0 0 375 149.999998" height="200" preserveAspectRatio="xMidYMid meet" version="1.0"><defs><g/></defs><g fill="#c7d53d" fill-opacity="1"><g transform="translate(11.981349, 73.428799)"><g><path d="M 20.40625 -30.203125 C 18.289062 -30.203125 16.628906 -29.53125 15.421875 -28.1875 C 14.222656 -26.84375 13.535156 -24.9375 13.359375 -22.46875 L 27.375 -22.46875 C 27.332031 -24.9375 26.6875 -26.84375 25.4375 -28.1875 C 24.195312 -29.53125 22.519531 -30.203125 20.40625 -30.203125 Z M 21.8125 0.65625 C 15.914062 0.65625 11.304688 -0.96875 7.984375 -4.21875 C 4.671875 -7.476562 3.015625 -12.085938 3.015625 -18.046875 C 3.015625 -24.179688 4.546875 -28.925781 7.609375 -32.28125 C 10.679688 -35.632812 14.925781 -37.3125 20.34375 -37.3125 C 25.519531 -37.3125 29.546875 -35.835938 32.421875 -32.890625 C 35.304688 -29.941406 36.75 -25.867188 36.75 -20.671875 L 36.75 -15.8125 L 13.140625 -15.8125 C 13.242188 -12.976562 14.082031 -10.765625 15.65625 -9.171875 C 17.226562 -7.578125 19.429688 -6.78125 22.265625 -6.78125 C 24.472656 -6.78125 26.554688 -7.007812 28.515625 -7.46875 C 30.484375 -7.925781 32.539062 -8.65625 34.6875 -9.65625 L 34.6875 -1.9375 C 32.9375 -1.0625 31.066406 -0.410156 29.078125 0.015625 C 27.097656 0.441406 24.675781 0.65625 21.8125 0.65625 Z M 21.8125 0.65625 "/></g></g></g><g fill="#c7d53d" fill-opacity="1"><g transform="translate(51.612161, 73.428799)"><g><path d="M 20.109375 0.65625 C 8.710938 0.65625 3.015625 -5.597656 3.015625 -18.109375 C 3.015625 -24.335938 4.5625 -29.09375 7.65625 -32.375 C 10.757812 -35.664062 15.207031 -37.3125 21 -37.3125 C 25.226562 -37.3125 29.023438 -36.476562 32.390625 -34.8125 L 29.4375 -27.09375 C 27.875 -27.71875 26.414062 -28.234375 25.0625 -28.640625 C 23.707031 -29.046875 22.351562 -29.25 21 -29.25 C 15.800781 -29.25 13.203125 -25.554688 13.203125 -18.171875 C 13.203125 -11.015625 15.800781 -7.4375 21 -7.4375 C 22.914062 -7.4375 24.691406 -7.691406 26.328125 -8.203125 C 27.972656 -8.710938 29.613281 -9.515625 31.25 -10.609375 L 31.25 -2.0625 C 29.632812 -1.039062 28 -0.332031 26.34375 0.0625 C 24.695312 0.457031 22.617188 0.65625 20.109375 0.65625 Z M 20.109375 0.65625 "/></g></g></g><g fill="#c7d53d" fill-opacity="1"><g transform="translate(86.100802, 73.428799)"><g><path d="M 13.203125 -18.375 C 13.203125 -14.75 13.796875 -12.007812 14.984375 -10.15625 C 16.171875 -8.300781 18.109375 -7.375 20.796875 -7.375 C 23.460938 -7.375 25.378906 -8.296875 26.546875 -10.140625 C 27.710938 -11.984375 28.296875 -14.726562 28.296875 -18.375 C 28.296875 -22 27.707031 -24.71875 26.53125 -26.53125 C 25.351562 -28.34375 23.421875 -29.25 20.734375 -29.25 C 18.066406 -29.25 16.144531 -28.347656 14.96875 -26.546875 C 13.789062 -24.742188 13.203125 -22.019531 13.203125 -18.375 Z M 38.515625 -18.375 C 38.515625 -12.414062 36.941406 -7.753906 33.796875 -4.390625 C 30.648438 -1.023438 26.273438 0.65625 20.671875 0.65625 C 17.148438 0.65625 14.046875 -0.113281 11.359375 -1.65625 C 8.679688 -3.195312 6.617188 -5.40625 5.171875 -8.28125 C 3.734375 -11.164062 3.015625 -14.53125 3.015625 -18.375 C 3.015625 -24.351562 4.570312 -29.003906 7.6875 -32.328125 C 10.8125 -35.648438 15.203125 -37.3125 20.859375 -37.3125 C 24.378906 -37.3125 27.476562 -36.546875 30.15625 -35.015625 C 32.84375 -33.484375 34.90625 -31.285156 36.34375 -28.421875 C 37.789062 -25.566406 38.515625 -22.21875 38.515625 -18.375 Z M 38.515625 -18.375 "/></g></g></g><g fill="#2eb3c0" fill-opacity="1"><g transform="translate(131.947375, 70.950126)"><g><path d="M 8.3125 -24.9375 C 10.6875 -28.425781 14.234375 -30.171875 18.953125 -30.171875 C 23.222656 -30.171875 26.6875 -28.6875 29.34375 -25.71875 C 31.988281 -22.789062 33.3125 -19.164062 33.3125 -14.84375 C 33.3125 -10.53125 31.988281 -6.910156 29.34375 -3.984375 C 26.6875 -1.015625 23.117188 0.46875 18.640625 0.46875 C 14.171875 0.46875 10.726562 -1.289062 8.3125 -4.8125 L 8.3125 11.765625 L 3.859375 11.765625 L 3.859375 -29.6875 L 8.3125 -29.6875 Z M 18.359375 -26.125 C 15.148438 -26.125 12.613281 -25.019531 10.75 -22.8125 C 8.96875 -20.707031 8.078125 -18.050781 8.078125 -14.84375 C 8.078125 -11.632812 8.96875 -8.984375 10.75 -6.890625 C 12.613281 -4.671875 15.148438 -3.5625 18.359375 -3.5625 C 21.523438 -3.5625 24.097656 -4.671875 26.078125 -6.890625 C 27.929688 -8.984375 28.859375 -11.632812 28.859375 -14.84375 C 28.859375 -18.050781 27.929688 -20.707031 26.078125 -22.8125 C 24.097656 -25.019531 21.523438 -26.125 18.359375 -26.125 Z M 18.359375 -26.125 "/></g></g></g><g fill="#2eb3c0" fill-opacity="1"><g transform="translate(167.223584, 70.950126)"><g><path d="M 8.3125 0 L 3.859375 0 L 3.859375 -41.578125 L 8.3125 -41.578125 Z M 8.3125 0 "/></g></g></g><g fill="#2eb3c0" fill-opacity="1"><g transform="translate(179.398032, 70.950126)"><g><path d="M 27.015625 -4.75 C 24.640625 -1.269531 21.097656 0.46875 16.390625 0.46875 C 12.117188 0.46875 8.632812 -1.015625 5.9375 -3.984375 C 3.320312 -6.910156 2.015625 -10.53125 2.015625 -14.84375 C 2.015625 -19.164062 3.320312 -22.789062 5.9375 -25.71875 C 8.632812 -28.6875 12.21875 -30.171875 16.6875 -30.171875 C 21.164062 -30.171875 24.609375 -28.410156 27.015625 -24.890625 L 27.015625 -29.6875 L 31.484375 -29.6875 L 31.484375 0 L 27.015625 0 Z M 16.984375 -3.5625 C 20.191406 -3.5625 22.726562 -4.671875 24.59375 -6.890625 C 26.375 -8.984375 27.265625 -11.632812 27.265625 -14.84375 C 27.265625 -18.050781 26.375 -20.707031 24.59375 -22.8125 C 22.726562 -25.019531 20.191406 -26.125 16.984375 -26.125 C 13.816406 -26.125 11.242188 -25.019531 9.265625 -22.8125 C 7.398438 -20.707031 6.46875 -18.050781 6.46875 -14.84375 C 6.46875 -11.632812 7.398438 -8.984375 9.265625 -6.890625 C 11.242188 -4.671875 13.816406 -3.5625 16.984375 -3.5625 Z M 16.984375 -3.5625 "/></g></g></g><g fill="#2eb3c0" fill-opacity="1"><g transform="translate(214.733632, 70.950126)"><g><path d="M 8.3125 -29.6875 L 8.3125 -25.0625 C 9.382812 -26.488281 10.691406 -27.695312 12.234375 -28.6875 C 13.773438 -29.675781 15.535156 -30.171875 17.515625 -30.171875 C 19.492188 -30.171875 21.195312 -29.890625 22.625 -29.328125 C 24.050781 -28.773438 25.300781 -27.945312 26.375 -26.84375 C 28.820312 -24.425781 30.046875 -21.238281 30.046875 -17.28125 L 30.046875 0 L 25.59375 0 L 25.59375 -17.15625 C 25.59375 -19.894531 24.820312 -22.070312 23.28125 -23.6875 C 21.738281 -25.3125 19.738281 -26.125 17.28125 -26.125 C 14.789062 -26.125 12.671875 -25.296875 10.921875 -23.640625 C 9.179688 -21.929688 8.3125 -19.753906 8.3125 -17.109375 L 8.3125 0 L 3.859375 0 L 3.859375 -29.6875 Z M 8.3125 -29.6875 "/></g></g></g><g fill="#2eb3c0" fill-opacity="1"><g transform="translate(248.346989, 70.950126)"><g><path d="M 8.3125 -29.6875 L 8.3125 -25.0625 C 9.382812 -26.488281 10.691406 -27.695312 12.234375 -28.6875 C 13.773438 -29.675781 15.535156 -30.171875 17.515625 -30.171875 C 19.492188 -30.171875 21.195312 -29.890625 22.625 -29.328125 C 24.050781 -28.773438 25.300781 -27.945312 26.375 -26.84375 C 28.820312 -24.425781 30.046875 -21.238281 30.046875 -17.28125 L 30.046875 0 L 25.59375 0 L 25.59375 -17.15625 C 25.59375 -19.894531 24.820312 -22.070312 23.28125 -23.6875 C 21.738281 -25.3125 19.738281 -26.125 17.28125 -26.125 C 14.789062 -26.125 12.671875 -25.296875 10.921875 -23.640625 C 9.179688 -21.929688 8.3125 -19.753906 8.3125 -17.109375 L 8.3125 0 L 3.859375 0 L 3.859375 -29.6875 Z M 8.3125 -29.6875 "/></g></g></g><g fill="#2eb3c0" fill-opacity="1"><g transform="translate(281.960345, 70.950126)"><g><path d="M 3.859375 -29.6875 L 8.3125 -29.6875 L 8.3125 0 L 3.859375 0 Z M 8.5 -40.5 L 8.5 -34.6875 L 3.6875 -34.6875 L 3.6875 -40.5 Z M 8.5 -40.5 "/></g></g></g><g fill="#2eb3c0" fill-opacity="1"><g transform="translate(294.134786, 70.950126)"><g><path d="M 8.3125 -29.6875 L 8.3125 -25.0625 C 9.382812 -26.488281 10.691406 -27.695312 12.234375 -28.6875 C 13.773438 -29.675781 15.535156 -30.171875 17.515625 -30.171875 C 19.492188 -30.171875 21.195312 -29.890625 22.625 -29.328125 C 24.050781 -28.773438 25.300781 -27.945312 26.375 -26.84375 C 28.820312 -24.425781 30.046875 -21.238281 30.046875 -17.28125 L 30.046875 0 L 25.59375 0 L 25.59375 -17.15625 C 25.59375 -19.894531 24.820312 -22.070312 23.28125 -23.6875 C 21.738281 -25.3125 19.738281 -26.125 17.28125 -26.125 C 14.789062 -26.125 12.671875 -25.296875 10.921875 -23.640625 C 9.179688 -21.929688 8.3125 -19.753906 8.3125 -17.109375 L 8.3125 0 L 3.859375 0 L 3.859375 -29.6875 Z M 8.3125 -29.6875 "/></g></g></g><g fill="#2eb3c0" fill-opacity="1"><g transform="translate(327.748142, 70.950126)"><g><path d="M 27.015625 -24.9375 L 27.015625 -29.6875 L 31.484375 -29.6875 L 31.484375 -0.890625 C 31.484375 3.378906 30.265625 6.632812 27.828125 8.875 C 25.390625 11.113281 22.109375 12.234375 17.984375 12.234375 C 13.867188 12.234375 10.65625 11.441406 8.34375 9.859375 C 6.03125 8.273438 4.457031 6.175781 3.625 3.5625 L 8.546875 3.5625 C 9.816406 6.65625 12.707031 8.203125 17.21875 8.203125 C 20.664062 8.203125 23.160156 7.40625 24.703125 5.8125 C 26.242188 4.226562 27.015625 1.894531 27.015625 -1.1875 L 27.015625 -5.28125 C 24.609375 -1.757812 21.066406 0 16.390625 0 C 12.117188 0 8.632812 -1.460938 5.9375 -4.390625 C 3.320312 -7.242188 2.015625 -10.804688 2.015625 -15.078125 C 2.015625 -19.359375 3.320312 -22.925781 5.9375 -25.78125 C 8.632812 -28.707031 12.226562 -30.171875 16.71875 -30.171875 C 21.207031 -30.171875 24.640625 -28.425781 27.015625 -24.9375 Z M 16.984375 -4.03125 C 18.609375 -4.03125 20.050781 -4.316406 21.3125 -4.890625 C 22.582031 -5.472656 23.675781 -6.257812 24.59375 -7.25 C 26.375 -9.300781 27.265625 -11.910156 27.265625 -15.078125 C 27.265625 -18.253906 26.375 -20.867188 24.59375 -22.921875 C 22.644531 -25.054688 20.109375 -26.125 16.984375 -26.125 C 13.773438 -26.125 11.203125 -25.054688 9.265625 -22.921875 C 7.398438 -20.828125 6.46875 -18.210938 6.46875 -15.078125 C 6.46875 -11.953125 7.398438 -9.34375 9.265625 -7.25 C 11.203125 -5.101562 13.773438 -4.03125 16.984375 -4.03125 Z M 16.984375 -4.03125 "/></g></g></g><g fill="#a9a9a9" fill-opacity="1"><g transform="translate(16.244714, 121.550218)"><g><path d="M 26.390625 -24.09375 L 26.390625 0 L 23.65625 0 L 23.65625 -19.9375 L 14.734375 -8.484375 L 5.671875 -19.9375 L 5.671875 0 L 2.953125 0 L 2.953125 -24.09375 L 6.109375 -24.09375 L 14.734375 -12.65625 L 23.21875 -24.09375 Z M 26.390625 -24.09375 "/></g></g></g><g fill="#a9a9a9" fill-opacity="1"><g transform="translate(45.569615, 121.550218)"><g><path d="M 16.5625 -2.90625 C 15.101562 -0.769531 12.929688 0.296875 10.046875 0.296875 C 7.421875 0.296875 5.285156 -0.613281 3.640625 -2.4375 C 2.035156 -4.226562 1.234375 -6.445312 1.234375 -9.09375 C 1.234375 -11.738281 2.035156 -13.957031 3.640625 -15.75 C 5.285156 -17.570312 7.476562 -18.484375 10.21875 -18.484375 C 12.96875 -18.484375 15.082031 -17.40625 16.5625 -15.25 L 16.5625 -18.1875 L 19.28125 -18.1875 L 19.28125 0 L 16.5625 0 Z M 10.40625 -2.1875 C 12.375 -2.1875 13.925781 -2.863281 15.0625 -4.21875 C 16.15625 -5.507812 16.703125 -7.132812 16.703125 -9.09375 C 16.703125 -11.0625 16.15625 -12.6875 15.0625 -13.96875 C 13.925781 -15.332031 12.375 -16.015625 10.40625 -16.015625 C 8.46875 -16.015625 6.890625 -15.332031 5.671875 -13.96875 C 4.535156 -12.6875 3.96875 -11.0625 3.96875 -9.09375 C 3.96875 -7.132812 4.535156 -5.507812 5.671875 -4.21875 C 6.890625 -2.863281 8.46875 -2.1875 10.40625 -2.1875 Z M 10.40625 -2.1875 "/></g></g></g><g fill="#a9a9a9" fill-opacity="1"><g transform="translate(67.217653, 121.550218)"><g><path d="M 5.09375 -18.1875 L 5.09375 -15.359375 C 5.75 -16.234375 6.550781 -16.972656 7.5 -17.578125 C 8.445312 -18.179688 9.523438 -18.484375 10.734375 -18.484375 C 11.953125 -18.484375 12.992188 -18.3125 13.859375 -17.96875 C 14.734375 -17.632812 15.5 -17.128906 16.15625 -16.453125 C 17.65625 -14.972656 18.40625 -13.019531 18.40625 -10.59375 L 18.40625 0 L 15.6875 0 L 15.6875 -10.515625 C 15.6875 -12.191406 15.210938 -13.523438 14.265625 -14.515625 C 13.316406 -15.515625 12.09375 -16.015625 10.59375 -16.015625 C 9.0625 -16.015625 7.765625 -15.503906 6.703125 -14.484375 C 5.628906 -13.441406 5.09375 -12.109375 5.09375 -10.484375 L 5.09375 0 L 2.359375 0 L 2.359375 -18.1875 Z M 5.09375 -18.1875 "/></g></g></g><g fill="#a9a9a9" fill-opacity="1"><g transform="translate(87.810574, 121.550218)"><g><path d="M 16.5625 -2.90625 C 15.101562 -0.769531 12.929688 0.296875 10.046875 0.296875 C 7.421875 0.296875 5.285156 -0.613281 3.640625 -2.4375 C 2.035156 -4.226562 1.234375 -6.445312 1.234375 -9.09375 C 1.234375 -11.738281 2.035156 -13.957031 3.640625 -15.75 C 5.285156 -17.570312 7.476562 -18.484375 10.21875 -18.484375 C 12.96875 -18.484375 15.082031 -17.40625 16.5625 -15.25 L 16.5625 -18.1875 L 19.28125 -18.1875 L 19.28125 0 L 16.5625 0 Z M 10.40625 -2.1875 C 12.375 -2.1875 13.925781 -2.863281 15.0625 -4.21875 C 16.15625 -5.507812 16.703125 -7.132812 16.703125 -9.09375 C 16.703125 -11.0625 16.15625 -12.6875 15.0625 -13.96875 C 13.925781 -15.332031 12.375 -16.015625 10.40625 -16.015625 C 8.46875 -16.015625 6.890625 -15.332031 5.671875 -13.96875 C 4.535156 -12.6875 3.96875 -11.0625 3.96875 -9.09375 C 3.96875 -7.132812 4.535156 -5.507812 5.671875 -4.21875 C 6.890625 -2.863281 8.46875 -2.1875 10.40625 -2.1875 Z M 10.40625 -2.1875 "/></g></g></g><g fill="#a9a9a9" fill-opacity="1"><g transform="translate(109.458608, 121.550218)"><g><path d="M 16.5625 -15.28125 L 16.5625 -18.1875 L 19.28125 -18.1875 L 19.28125 -0.546875 C 19.28125 2.078125 18.535156 4.070312 17.046875 5.4375 C 15.554688 6.8125 13.546875 7.5 11.015625 7.5 C 8.492188 7.5 6.523438 7.007812 5.109375 6.03125 C 3.691406 5.0625 2.726562 3.78125 2.21875 2.1875 L 5.234375 2.1875 C 6.015625 4.070312 7.785156 5.015625 10.546875 5.015625 C 12.660156 5.015625 14.191406 4.53125 15.140625 3.5625 C 16.085938 2.59375 16.5625 1.160156 16.5625 -0.734375 L 16.5625 -3.234375 C 15.082031 -1.078125 12.910156 0 10.046875 0 C 7.421875 0 5.285156 -0.894531 3.640625 -2.6875 C 2.035156 -4.4375 1.234375 -6.625 1.234375 -9.25 C 1.234375 -11.863281 2.035156 -14.046875 3.640625 -15.796875 C 5.285156 -17.585938 7.484375 -18.484375 10.234375 -18.484375 C 12.992188 -18.484375 15.101562 -17.414062 16.5625 -15.28125 Z M 10.40625 -2.46875 C 11.40625 -2.46875 12.289062 -2.644531 13.0625 -3 C 13.84375 -3.351562 14.507812 -3.832031 15.0625 -4.4375 C 16.15625 -5.695312 16.703125 -7.300781 16.703125 -9.25 C 16.703125 -11.1875 16.15625 -12.785156 15.0625 -14.046875 C 13.875 -15.359375 12.320312 -16.015625 10.40625 -16.015625 C 8.4375 -16.015625 6.859375 -15.359375 5.671875 -14.046875 C 4.535156 -12.765625 3.96875 -11.164062 3.96875 -9.25 C 3.96875 -7.332031 4.535156 -5.726562 5.671875 -4.4375 C 6.859375 -3.125 8.4375 -2.46875 10.40625 -2.46875 Z M 10.40625 -2.46875 "/></g></g></g><g fill="#a9a9a9" fill-opacity="1"><g transform="translate(131.106641, 121.550218)"><g><path d="M 5.671875 -21.46875 L 5.671875 -13.390625 L 19.0625 -13.390625 L 19.0625 -10.734375 L 5.671875 -10.734375 L 5.671875 -2.625 L 20.671875 -2.625 L 20.671875 0 L 2.953125 0 L 2.953125 -24.09375 L 20.671875 -24.09375 L 20.671875 -21.46875 Z M 5.671875 -21.46875 "/></g></g></g><g fill="#a9a9a9" fill-opacity="1"><g transform="translate(153.22766, 121.550218)"><g><path d="M 22.75 -24.09375 L 12.984375 0 L 9.859375 0 L 0.109375 -24.09375 L 3.09375 -24.09375 L 11.421875 -3.09375 L 19.765625 -24.09375 Z M 22.75 -24.09375 "/></g></g></g></svg>
